<mxfile host="app.diagrams.net" agent="Mozilla/5.0 (Windows NT 10.0; Win64; x64) AppleWebKit/537.36 (KHTML, like Gecko) Chrome/130.0.0.0 Safari/537.36" version="24.8.4">
  <diagram name="Страница — 1" id="V2-fQT5zMQqaheredIf3">
    <mxGraphModel dx="1450" dy="1015" grid="0" gridSize="10" guides="1" tooltips="1" connect="1" arrows="1" fold="1" page="0" pageScale="1" pageWidth="827" pageHeight="1169" math="0" shadow="0">
      <root>
        <mxCell id="0" />
        <mxCell id="1" parent="0" />
        <mxCell id="lnjXJIgrTa2Q20FUyr7j-8" value="Guest&lt;div&gt;&lt;br&gt;&lt;/div&gt;" style="shape=umlActor;verticalLabelPosition=bottom;verticalAlign=top;html=1;outlineConnect=0;" vertex="1" parent="1">
          <mxGeometry x="-167" y="19" width="30" height="60" as="geometry" />
        </mxCell>
        <mxCell id="lnjXJIgrTa2Q20FUyr7j-13" value="User&lt;div&gt;&lt;br&gt;&lt;/div&gt;" style="shape=umlActor;verticalLabelPosition=bottom;verticalAlign=top;html=1;outlineConnect=0;" vertex="1" parent="1">
          <mxGeometry x="-161" y="193" width="30" height="60" as="geometry" />
        </mxCell>
        <mxCell id="lnjXJIgrTa2Q20FUyr7j-15" value="Server&lt;div&gt;&lt;br&gt;&lt;/div&gt;" style="shape=umlActor;verticalLabelPosition=bottom;verticalAlign=top;html=1;outlineConnect=0;" vertex="1" parent="1">
          <mxGeometry x="281" y="22" width="30" height="60" as="geometry" />
        </mxCell>
        <mxCell id="lnjXJIgrTa2Q20FUyr7j-17" value="Sign in" style="ellipse;whiteSpace=wrap;html=1;" vertex="1" parent="1">
          <mxGeometry x="30" y="-10" width="99" height="39" as="geometry" />
        </mxCell>
        <mxCell id="lnjXJIgrTa2Q20FUyr7j-19" value="Sign up" style="ellipse;whiteSpace=wrap;html=1;" vertex="1" parent="1">
          <mxGeometry x="27.5" y="95" width="104" height="40" as="geometry" />
        </mxCell>
        <mxCell id="lnjXJIgrTa2Q20FUyr7j-21" value="Update DB" style="ellipse;whiteSpace=wrap;html=1;" vertex="1" parent="1">
          <mxGeometry x="399" y="193" width="104" height="50" as="geometry" />
        </mxCell>
        <mxCell id="lnjXJIgrTa2Q20FUyr7j-22" value="" style="endArrow=none;dashed=1;html=1;rounded=0;fontSize=12;curved=1;entryX=0.262;entryY=1.015;entryDx=0;entryDy=0;entryPerimeter=0;verticalAlign=top;startArrow=classic;startFill=1;" edge="1" parent="1" target="lnjXJIgrTa2Q20FUyr7j-19">
          <mxGeometry width="50" height="50" relative="1" as="geometry">
            <mxPoint x="-131" y="216" as="sourcePoint" />
            <mxPoint x="-44" y="169" as="targetPoint" />
          </mxGeometry>
        </mxCell>
        <mxCell id="lnjXJIgrTa2Q20FUyr7j-23" value="" style="endArrow=none;html=1;rounded=0;fontSize=12;startSize=8;endSize=8;curved=1;exitX=1;exitY=0.3333333333333333;exitDx=0;exitDy=0;exitPerimeter=0;" edge="1" parent="1" source="lnjXJIgrTa2Q20FUyr7j-8" target="lnjXJIgrTa2Q20FUyr7j-17">
          <mxGeometry width="50" height="50" relative="1" as="geometry">
            <mxPoint x="-119" y="87" as="sourcePoint" />
            <mxPoint x="-69" y="37" as="targetPoint" />
          </mxGeometry>
        </mxCell>
        <mxCell id="lnjXJIgrTa2Q20FUyr7j-24" value="" style="endArrow=none;html=1;rounded=0;fontSize=12;startSize=8;endSize=8;curved=1;entryX=0;entryY=0;entryDx=0;entryDy=0;" edge="1" parent="1" source="lnjXJIgrTa2Q20FUyr7j-8" target="lnjXJIgrTa2Q20FUyr7j-19">
          <mxGeometry width="50" height="50" relative="1" as="geometry">
            <mxPoint x="-82" y="142" as="sourcePoint" />
            <mxPoint x="-32" y="92" as="targetPoint" />
          </mxGeometry>
        </mxCell>
        <mxCell id="lnjXJIgrTa2Q20FUyr7j-25" value="" style="endArrow=classic;html=1;rounded=0;fontSize=12;startSize=8;endSize=8;curved=1;exitX=0.5;exitY=1;exitDx=0;exitDy=0;entryX=0.5;entryY=0;entryDx=0;entryDy=0;" edge="1" parent="1" source="lnjXJIgrTa2Q20FUyr7j-17" target="lnjXJIgrTa2Q20FUyr7j-19">
          <mxGeometry width="50" height="50" relative="1" as="geometry">
            <mxPoint x="174" y="227" as="sourcePoint" />
            <mxPoint x="224" y="177" as="targetPoint" />
          </mxGeometry>
        </mxCell>
        <mxCell id="lnjXJIgrTa2Q20FUyr7j-26" value="" style="endArrow=none;html=1;rounded=0;fontSize=12;startSize=8;endSize=8;curved=1;exitX=1;exitY=0.5;exitDx=0;exitDy=0;" edge="1" parent="1" source="lnjXJIgrTa2Q20FUyr7j-19" target="lnjXJIgrTa2Q20FUyr7j-15">
          <mxGeometry width="50" height="50" relative="1" as="geometry">
            <mxPoint x="174" y="227" as="sourcePoint" />
            <mxPoint x="224" y="177" as="targetPoint" />
          </mxGeometry>
        </mxCell>
        <mxCell id="lnjXJIgrTa2Q20FUyr7j-27" value="" style="endArrow=none;html=1;rounded=0;fontSize=12;startSize=8;endSize=8;curved=1;" edge="1" parent="1" source="lnjXJIgrTa2Q20FUyr7j-17" target="lnjXJIgrTa2Q20FUyr7j-15">
          <mxGeometry width="50" height="50" relative="1" as="geometry">
            <mxPoint x="156" y="95" as="sourcePoint" />
            <mxPoint x="206" y="45" as="targetPoint" />
          </mxGeometry>
        </mxCell>
        <mxCell id="lnjXJIgrTa2Q20FUyr7j-28" value="" style="endArrow=none;html=1;rounded=0;fontSize=12;startSize=8;endSize=8;curved=1;entryX=1;entryY=0.3333333333333333;entryDx=0;entryDy=0;entryPerimeter=0;exitX=0.5;exitY=0;exitDx=0;exitDy=0;" edge="1" parent="1" source="lnjXJIgrTa2Q20FUyr7j-21" target="lnjXJIgrTa2Q20FUyr7j-15">
          <mxGeometry width="50" height="50" relative="1" as="geometry">
            <mxPoint x="174" y="227" as="sourcePoint" />
            <mxPoint x="224" y="177" as="targetPoint" />
          </mxGeometry>
        </mxCell>
        <mxCell id="lnjXJIgrTa2Q20FUyr7j-34" style="edgeStyle=none;curved=1;rounded=0;orthogonalLoop=1;jettySize=auto;html=1;fontSize=12;startSize=8;endSize=8;endArrow=none;endFill=0;" edge="1" parent="1" source="lnjXJIgrTa2Q20FUyr7j-29" target="lnjXJIgrTa2Q20FUyr7j-21">
          <mxGeometry relative="1" as="geometry" />
        </mxCell>
        <mxCell id="lnjXJIgrTa2Q20FUyr7j-29" value="Check" style="ellipse;whiteSpace=wrap;html=1;" vertex="1" parent="1">
          <mxGeometry x="64" y="285" width="104.5" height="42" as="geometry" />
        </mxCell>
        <mxCell id="lnjXJIgrTa2Q20FUyr7j-35" style="edgeStyle=none;curved=1;rounded=0;orthogonalLoop=1;jettySize=auto;html=1;exitX=1;exitY=0.5;exitDx=0;exitDy=0;entryX=0;entryY=0.5;entryDx=0;entryDy=0;fontSize=12;startSize=8;endSize=8;endArrow=none;endFill=0;" edge="1" parent="1" source="lnjXJIgrTa2Q20FUyr7j-32" target="lnjXJIgrTa2Q20FUyr7j-21">
          <mxGeometry relative="1" as="geometry" />
        </mxCell>
        <mxCell id="lnjXJIgrTa2Q20FUyr7j-36" style="edgeStyle=none;curved=1;rounded=0;orthogonalLoop=1;jettySize=auto;html=1;exitX=0;exitY=0.5;exitDx=0;exitDy=0;fontSize=12;startSize=8;endSize=8;startArrow=classic;startFill=1;endArrow=none;endFill=0;" edge="1" parent="1" source="lnjXJIgrTa2Q20FUyr7j-32" target="lnjXJIgrTa2Q20FUyr7j-13">
          <mxGeometry relative="1" as="geometry" />
        </mxCell>
        <mxCell id="lnjXJIgrTa2Q20FUyr7j-32" value="Stat" style="ellipse;whiteSpace=wrap;html=1;" vertex="1" parent="1">
          <mxGeometry x="64" y="190" width="104.5" height="42" as="geometry" />
        </mxCell>
        <mxCell id="lnjXJIgrTa2Q20FUyr7j-33" value="" style="endArrow=none;html=1;rounded=0;fontSize=12;startSize=8;endSize=8;curved=1;entryX=0.027;entryY=0.233;entryDx=0;entryDy=0;entryPerimeter=0;" edge="1" parent="1" source="lnjXJIgrTa2Q20FUyr7j-13" target="lnjXJIgrTa2Q20FUyr7j-29">
          <mxGeometry width="50" height="50" relative="1" as="geometry">
            <mxPoint x="171" y="229" as="sourcePoint" />
            <mxPoint x="221" y="179" as="targetPoint" />
          </mxGeometry>
        </mxCell>
      </root>
    </mxGraphModel>
  </diagram>
</mxfile>
